<svg width="290" height="155" viewBox="0 0 290 155" fill="none" xmlns="http://www.w3.org/2000/svg">
<g opacity="0.4">
<path d="M211.027 87.1377L311.363 87.1377L311.363 85.9432L211.027 85.9432L211.027 87.1377Z" fill="#A30C33"/>
<path d="M316.14 91.9143L317.334 91.9143L317.334 99.0812C317.334 99.2603 317.274 99.3798 317.155 99.4992L280.604 135.931C280.484 136.05 280.365 136.11 280.186 136.11L246.86 136.11L246.86 134.915L279.947 134.915L316.14 98.8423L316.14 91.9143Z" fill="#A30C33"/>
<path d="M229.54 31.5935L274.333 31.5934C274.512 31.5934 274.632 31.6532 274.751 31.7726L317.155 74.1765C317.274 74.2959 317.334 74.4154 317.334 74.5945L317.334 80.5669L316.14 80.5669L316.14 74.8334L274.094 32.7879L229.54 32.7879L229.54 31.5935Z" fill="#A30C33"/>
<path d="M259.404 69.8166L283.413 69.8166C283.592 69.8166 283.711 69.8764 283.831 69.9958L299.956 86.0018L299.12 86.8379L283.174 71.0111L259.404 71.0111L259.404 69.8166Z" fill="#A30C33"/>
<path d="M276.006 86.062L276.842 86.8982L260.776 103.083C260.657 103.203 260.537 103.262 260.358 103.262L236.11 103.262L236.11 102.068L260.119 102.068L276.006 86.062Z" fill="#A30C33"/>
<path d="M184.75 116.401L279.592 116.401C279.771 116.401 279.89 116.461 280.01 116.58L289.506 126.196L288.67 127.032L279.353 117.596L184.75 117.596L184.75 116.401Z" fill="#A30C33"/>
<path d="M269.318 135.095L270.154 135.931L254.626 151.46C254.507 151.579 254.387 151.639 254.208 151.639L204.458 151.639L204.458 150.444L253.969 150.444L269.318 135.095Z" fill="#A30C33"/>
<path d="M259.642 2.32828L283.71 26.3969C283.83 26.5164 283.89 26.6358 283.89 26.815L283.89 41.1487L282.695 41.1487L282.695 27.0539L258.806 3.1644L259.642 2.32828Z" fill="#A30C33"/>
<path d="M265.078 31.953L265.914 32.7891L250.087 48.7354C249.968 48.8548 249.848 48.9146 249.669 48.9146L189.527 48.9146L189.527 47.7201L249.371 47.7201L265.078 31.953Z" fill="#A30C33"/>
<path d="M209.236 14.8702L235.992 14.8702C236.171 14.8702 236.29 14.9299 236.41 15.0493L253.252 31.8914L252.416 32.7275L235.753 16.0646L209.236 16.0646L209.236 14.8702Z" fill="#A30C33"/>
<path d="M204.456 148.294C202.939 148.294 201.709 149.524 201.709 151.041C201.709 152.559 202.939 153.789 204.456 153.789C205.973 153.789 207.203 152.559 207.203 151.041C207.203 149.524 205.973 148.294 204.456 148.294Z" fill="#A30C33"/>
<path d="M241.485 129.183C244.949 129.183 247.815 131.99 247.815 135.513C247.815 139.037 245.008 141.844 241.485 141.844C237.961 141.844 235.154 139.037 235.154 135.513C235.154 131.99 238.021 129.183 241.485 129.183ZM241.485 140.65C244.292 140.65 246.621 138.32 246.621 135.513C246.621 132.706 244.292 130.377 241.485 130.377C238.678 130.377 236.348 132.706 236.348 135.513C236.348 138.32 238.678 140.65 241.485 140.65Z" fill="#A30C33"/>
<path d="M241.487 132.767C239.97 132.767 238.74 133.997 238.74 135.514C238.74 137.031 239.97 138.261 241.487 138.261C243.004 138.261 244.234 137.031 244.234 135.514C244.234 133.997 243.004 132.767 241.487 132.767Z" fill="#A30C33"/>
<path d="M182.002 116.879C182.002 115.386 183.256 114.132 184.749 114.132C186.242 114.132 187.496 115.386 187.496 116.879C187.496 118.372 186.242 119.626 184.749 119.626C183.256 119.626 182.002 118.432 182.002 116.879Z" fill="#A30C33"/>
<path d="M236.112 99.9175C234.595 99.9175 233.365 101.148 233.365 102.665C233.365 104.182 234.595 105.412 236.112 105.412C237.629 105.412 238.859 104.182 238.859 102.665C238.859 101.148 237.629 99.9175 236.112 99.9175Z" fill="#A30C33"/>
<path d="M205.652 80.2084C209.116 80.2084 211.982 83.0155 211.982 86.5392C211.982 90.0629 209.175 92.8699 205.652 92.8699C202.128 92.8699 199.321 90.0629 199.321 86.5392C199.321 83.0155 202.188 80.2084 205.652 80.2084ZM205.652 91.6754C208.459 91.6754 210.788 89.3462 210.788 86.5392C210.788 83.7321 208.459 81.4029 205.652 81.4029C202.845 81.4029 200.515 83.7321 200.515 86.5392C200.515 89.3462 202.845 91.6754 205.652 91.6754Z" fill="#A30C33"/>
<path d="M205.655 83.7928C204.138 83.7928 202.908 85.0228 202.908 86.5401C202.908 88.0573 204.138 89.2874 205.655 89.2874C207.172 89.2874 208.402 88.0573 208.402 86.5401C208.402 85.0228 207.172 83.7928 205.655 83.7928Z" fill="#A30C33"/>
<path d="M259.406 67.6663C257.889 67.6663 256.659 68.8963 256.659 70.4136C256.659 71.9309 257.889 73.1609 259.406 73.1609C260.923 73.1609 262.153 71.9309 262.153 70.4136C262.153 68.8963 260.923 67.6663 259.406 67.6663Z" fill="#A30C33"/>
<path d="M189.525 45.5684C188.008 45.5684 186.778 46.7984 186.778 48.3157C186.778 49.833 188.008 51.063 189.525 51.063C191.042 51.063 192.272 49.833 192.272 48.3157C192.272 46.7984 191.042 45.5684 189.525 45.5684Z" fill="#A30C33"/>
<path d="M224.166 25.9787C227.63 25.9787 230.497 28.7857 230.497 32.3094C230.497 35.8331 227.69 38.6401 224.166 38.6401C220.643 38.6401 217.836 35.8331 217.836 32.3094C217.836 28.7857 220.702 25.9787 224.166 25.9787ZM224.166 37.4457C226.973 37.4457 229.303 35.1165 229.303 32.3094C229.303 29.5024 226.973 27.1732 224.166 27.1732C221.359 27.1732 219.03 29.5024 219.03 32.3094C219.03 35.1165 221.359 37.4457 224.166 37.4457Z" fill="#A30C33"/>
<path d="M221.419 32.3103C221.419 30.8172 222.674 29.563 224.167 29.563C225.66 29.563 226.914 30.8172 226.914 32.3103C226.914 33.8034 225.66 35.0576 224.167 35.0576C222.674 35.0576 221.419 33.8034 221.419 32.3103Z" fill="#A30C33"/>
<path d="M209.235 12.7207C207.718 12.7207 206.488 13.9508 206.488 15.468C206.488 16.9853 207.718 18.2153 209.235 18.2153C210.752 18.2153 211.982 16.9853 211.982 15.468C211.982 13.9508 210.752 12.7207 209.235 12.7207Z" fill="#A30C33"/>
<path d="M256.474 2.7476C256.474 1.2545 257.728 0.000303162 259.221 0.000303032C260.715 0.000302901 261.969 1.2545 261.969 2.7476C261.969 4.24069 260.715 5.49487 259.221 5.49487C257.669 5.43515 256.474 4.24069 256.474 2.7476Z" fill="#A30C33"/>
<g opacity="0.4">
<path d="M256.474 87.0855L312.554 87.0854L312.554 85.9956L256.474 85.9956L256.474 87.0855Z" fill="black"/>
<path d="M316.14 91.9143L317.334 91.9143L317.334 99.0812C317.334 99.2603 317.274 99.3798 317.155 99.4992L280.604 135.931C280.484 136.05 280.365 136.11 280.186 136.11L246.86 136.11L246.86 134.915L279.947 134.915L316.14 98.8423L316.14 91.9143Z" fill="black"/>
<path d="M229.54 31.5935L274.333 31.5934C274.512 31.5934 274.632 31.6532 274.751 31.7726L317.155 74.1765C317.274 74.2959 317.334 74.4154 317.334 74.5945L317.334 80.5669L316.14 80.5669L316.14 74.8334L274.094 32.7879L229.54 32.7879L229.54 31.5935Z" fill="black"/>
<path d="M259.402 69.8166L283.411 69.8166C283.59 69.8166 283.709 69.8764 283.829 69.9958L299.954 86.0018L299.118 86.8379L283.172 71.0111L259.402 71.0111L259.402 69.8166Z" fill="black"/>
<path d="M276.005 86.062L276.841 86.8982L260.775 103.083C260.656 103.203 260.536 103.262 260.357 103.262L244.269 103.262L244.269 102.068L260.118 102.068L276.005 86.062Z" fill="black"/>
<path d="M184.748 116.401L279.589 116.401C279.768 116.401 279.887 116.461 280.007 116.581L289.503 126.196L288.667 127.032L279.35 117.596L184.748 117.596L184.748 116.401Z" fill="black"/>
<path d="M269.314 135.095L270.15 135.931L254.622 151.46C254.503 151.579 254.383 151.639 254.204 151.639L204.454 151.639L204.454 150.444L253.965 150.444L269.314 135.095Z" fill="black"/>
<path d="M259.641 2.32828L283.71 26.3969C283.829 26.5164 283.889 26.6358 283.889 26.815L283.889 41.1487L282.694 41.1487L282.694 27.0539L258.805 3.1644L259.641 2.32828Z" fill="black"/>
<path d="M265.077 31.953L265.913 32.7891L250.086 48.7354C249.967 48.8548 249.847 48.9146 249.668 48.9146L189.526 48.9146L189.526 47.7201L249.37 47.7201L265.077 31.953Z" fill="black"/>
<path d="M209.235 14.8702L235.991 14.8702C236.17 14.8702 236.289 14.9299 236.409 15.0493L253.251 31.8914L252.415 32.7275L235.752 16.0646L209.235 16.0646L209.235 14.8702Z" fill="black"/>
<path d="M204.456 148.294C202.939 148.294 201.709 149.524 201.709 151.041C201.709 152.559 202.939 153.789 204.456 153.789C205.973 153.789 207.203 152.559 207.203 151.041C207.203 149.524 205.973 148.294 204.456 148.294Z" fill="black"/>
<path d="M241.487 129.183C244.951 129.183 247.817 131.99 247.817 135.513C247.817 139.037 245.01 141.844 241.487 141.844C237.963 141.844 235.156 139.037 235.156 135.513C235.156 131.99 238.023 129.183 241.487 129.183ZM241.487 140.65C244.294 140.65 246.623 138.32 246.623 135.513C246.623 132.706 244.294 130.377 241.487 130.377C238.68 130.377 236.35 132.706 236.35 135.513C236.35 138.32 238.68 140.65 241.487 140.65Z" fill="black"/>
<path d="M182.001 116.879C182.001 115.386 183.255 114.132 184.748 114.132C186.241 114.132 187.495 115.386 187.495 116.879C187.495 118.372 186.241 119.626 184.748 119.626C183.255 119.626 182.001 118.432 182.001 116.879Z" fill="black"/>
<path d="M244.271 99.9175C242.754 99.9175 241.524 101.148 241.524 102.665C241.524 104.182 242.754 105.412 244.271 105.412C245.789 105.412 247.019 104.182 247.019 102.665C247.019 101.148 245.789 99.9175 244.271 99.9175Z" fill="black"/>
<path d="M259.405 67.6663C257.888 67.6663 256.658 68.8963 256.658 70.4136C256.658 71.9309 257.888 73.1609 259.405 73.1609C260.922 73.1609 262.152 71.9309 262.152 70.4136C262.152 68.8963 260.922 67.6663 259.405 67.6663Z" fill="black"/>
<path d="M255.171 84.0906C253.653 84.0906 252.423 85.3206 252.423 86.8379C252.423 88.3552 253.653 89.5852 255.171 89.5852C256.688 89.5852 257.918 88.3552 257.918 86.8379C257.918 85.3206 256.688 84.0906 255.171 84.0906Z" fill="black"/>
<path d="M189.525 45.5684C188.008 45.5684 186.778 46.7984 186.778 48.3157C186.778 49.833 188.008 51.063 189.525 51.063C191.042 51.063 192.272 49.833 192.272 48.3157C192.272 46.7984 191.042 45.5684 189.525 45.5684Z" fill="black"/>
<path d="M224.164 25.9787C227.628 25.9787 230.495 28.7857 230.495 32.3094C230.495 35.8331 227.688 38.6401 224.164 38.6401C220.641 38.6401 217.834 35.8331 217.834 32.3094C217.834 28.7857 220.7 25.9787 224.164 25.9787ZM224.164 37.4457C226.971 37.4457 229.301 35.1165 229.301 32.3094C229.301 29.5024 226.971 27.1732 224.164 27.1732C221.357 27.1732 219.028 29.5024 219.028 32.3094C219.028 35.1165 221.357 37.4457 224.164 37.4457Z" fill="black"/>
<path d="M209.234 12.721C207.717 12.721 206.487 13.951 206.487 15.4683C206.487 16.9856 207.717 18.2156 209.234 18.2156C210.751 18.2156 211.981 16.9856 211.981 15.4683C211.981 13.951 210.751 12.721 209.234 12.721Z" fill="black"/>
<path d="M256.474 2.7476C256.474 1.2545 257.728 0.000303162 259.221 0.000303032C260.715 0.000302901 261.969 1.2545 261.969 2.7476C261.969 4.24069 260.715 5.49487 259.221 5.49487C257.669 5.43515 256.474 4.24069 256.474 2.7476Z" fill="black"/>
</g>
</g>
<g opacity="0.4">
<path d="M65.862 67.2271H-34.8564V68.4261H65.862V67.2271Z" fill="#A30C33"/>
<path d="M-39.6496 62.432H-40.8486V55.2378C-40.8486 55.0579 -40.7887 54.938 -40.6688 54.8181L-3.97849 18.2477C-3.85858 18.1278 -3.73867 18.0679 -3.55882 18.0679H29.8941V19.2669H-3.31902L-39.6496 55.4776V62.432Z" fill="#A30C33"/>
<path d="M47.28 122.983H2.31642C2.13657 122.983 2.01666 122.923 1.89676 122.803L-40.6688 80.2376C-40.7887 80.1177 -40.8486 79.9978 -40.8486 79.8179V73.8228H-39.6496V79.5781L2.55622 121.784H47.28V122.983Z" fill="#A30C33"/>
<path d="M17.3018 84.614H-6.79873C-6.97858 84.614 -7.09848 84.554 -7.21838 84.4341L-23.4053 68.3671L-22.566 67.5278L-6.55891 83.415H17.3018V84.614Z" fill="#A30C33"/>
<path d="M0.63621 68.3065L-0.203125 67.4672L15.9238 51.2204C16.0437 51.1005 16.1636 51.0405 16.3435 51.0405H40.6838V52.2396H16.5833L0.63621 68.3065Z" fill="#A30C33"/>
<path d="M92.2388 37.8515L-2.96407 37.8515C-3.14393 37.8515 -3.26384 37.7916 -3.38374 37.6717L-12.916 28.0195L-12.0767 27.1802L-2.72427 36.6525L92.2388 36.6525V37.8515Z" fill="#A30C33"/>
<path d="M7.34908 19.088L6.50977 18.2487L22.0971 2.6613C22.217 2.5414 22.337 2.48145 22.5168 2.48145L72.4564 2.48145V3.68047L22.7566 3.68047L7.34908 19.088Z" fill="#A30C33"/>
<path d="M17.062 152.36L-7.09847 128.199C-7.21838 128.079 -7.27832 127.96 -7.27832 127.78L-7.27832 113.391H-6.07929L-6.07929 127.54L17.9013 151.52L17.062 152.36Z" fill="#A30C33"/>
<path d="M11.6069 122.622L10.7676 121.783L26.6547 105.776C26.7746 105.656 26.8945 105.596 27.0744 105.596H87.4455V106.795H27.3741L11.6069 122.622Z" fill="#A30C33"/>
<path d="M67.6618 139.77H40.8035C40.6237 139.77 40.5038 139.71 40.3839 139.59L23.4775 122.684L24.3169 121.844L41.0433 138.571H67.6618V139.77Z" fill="#A30C33"/>
<path d="M72.4589 5.83731C73.982 5.83731 75.2167 4.60262 75.2167 3.07954C75.2167 1.55647 73.982 0.321777 72.4589 0.321777C70.9359 0.321777 69.7012 1.55647 69.7012 3.07954C69.7012 4.60262 70.9359 5.83731 72.4589 5.83731Z" fill="#A30C33"/>
<path d="M35.2885 25.0217C31.8113 25.0217 28.9336 22.204 28.9336 18.6669C28.9336 15.1297 31.7513 12.312 35.2885 12.312C38.8256 12.312 41.6433 15.1297 41.6433 18.6669C41.6433 22.204 38.7656 25.0217 35.2885 25.0217ZM35.2885 13.511C32.4707 13.511 30.1326 15.8491 30.1326 18.6669C30.1326 21.4846 32.4707 23.8227 35.2885 23.8227C38.1062 23.8227 40.4443 21.4846 40.4443 18.6669C40.4443 15.8491 38.1062 13.511 35.2885 13.511Z" fill="#A30C33"/>
<path d="M35.2861 21.4237C36.8092 21.4237 38.0439 20.189 38.0439 18.666C38.0439 17.1429 36.8092 15.9082 35.2861 15.9082C33.763 15.9082 32.5283 17.1429 32.5283 18.666C32.5283 20.189 33.763 21.4237 35.2861 21.4237Z" fill="#A30C33"/>
<path d="M94.9989 37.372C94.9989 38.8708 93.74 40.1298 92.2412 40.1298C90.7424 40.1298 89.4834 38.8708 89.4834 37.372C89.4834 35.8732 90.7424 34.6143 92.2412 34.6143C93.74 34.6143 94.9989 35.8133 94.9989 37.372Z" fill="#A30C33"/>
<path d="M40.6826 54.3984C42.2056 54.3984 43.4403 53.1637 43.4403 51.6406C43.4403 50.1175 42.2056 48.8828 40.6826 48.8828C39.1595 48.8828 37.9248 50.1175 37.9248 51.6406C37.9248 53.1637 39.1595 54.3984 40.6826 54.3984Z" fill="#A30C33"/>
<path d="M71.2582 74.1824C67.781 74.1824 64.9033 71.3647 64.9033 67.8275C64.9033 64.2904 67.721 61.4727 71.2582 61.4727C74.7953 61.4727 77.613 64.2904 77.613 67.8275C77.613 71.3647 74.7354 74.1824 71.2582 74.1824ZM71.2582 62.6717C68.4405 62.6717 66.1023 65.0098 66.1023 67.8275C66.1023 70.6452 68.4405 72.9833 71.2582 72.9833C74.0759 72.9833 76.414 70.6452 76.414 67.8275C76.414 65.0098 74.0759 62.6717 71.2582 62.6717Z" fill="#A30C33"/>
<path d="M71.2558 70.5844C72.7789 70.5844 74.0136 69.3497 74.0136 67.8266C74.0136 66.3035 72.7789 65.0688 71.2558 65.0688C69.7327 65.0688 68.498 66.3035 68.498 67.8266C68.498 69.3497 69.7327 70.5844 71.2558 70.5844Z" fill="#A30C33"/>
<path d="M17.2988 86.7724C18.8219 86.7724 20.0566 85.5377 20.0566 84.0146C20.0566 82.4915 18.8219 81.2568 17.2988 81.2568C15.7757 81.2568 14.541 82.4915 14.541 84.0146C14.541 85.5377 15.7757 86.7724 17.2988 86.7724Z" fill="#A30C33"/>
<path d="M87.4462 108.955C88.9693 108.955 90.204 107.72 90.204 106.197C90.204 104.674 88.9693 103.439 87.4462 103.439C85.9232 103.439 84.6885 104.674 84.6885 106.197C84.6885 107.72 85.9232 108.955 87.4462 108.955Z" fill="#A30C33"/>
<path d="M52.6732 128.619C49.196 128.619 46.3184 125.801 46.3184 122.264C46.3184 118.727 49.1361 115.909 52.6732 115.909C56.2104 115.909 59.0281 118.727 59.0281 122.264C59.0281 125.801 56.1504 128.619 52.6732 128.619ZM52.6732 117.108C49.8555 117.108 47.5174 119.447 47.5174 122.264C47.5174 125.082 49.8555 127.42 52.6732 127.42C55.4909 127.42 57.829 125.082 57.829 122.264C57.829 119.447 55.4909 117.108 52.6732 117.108Z" fill="#A30C33"/>
<path d="M55.4306 122.263C55.4306 123.762 54.1716 125.021 52.6728 125.021C51.174 125.021 49.915 123.762 49.915 122.263C49.915 120.765 51.174 119.506 52.6728 119.506C54.1716 119.506 55.4306 120.765 55.4306 122.263Z" fill="#A30C33"/>
<path d="M67.6611 141.927C69.1842 141.927 70.4189 140.693 70.4189 139.17C70.4189 137.647 69.1842 136.412 67.6611 136.412C66.138 136.412 64.9033 137.647 64.9033 139.17C64.9033 140.693 66.138 141.927 67.6611 141.927Z" fill="#A30C33"/>
<path d="M20.2421 151.939C20.2421 153.438 18.9831 154.697 17.4843 154.697C15.9855 154.697 14.7266 153.438 14.7266 151.939C14.7266 150.44 15.9855 149.181 17.4843 149.181C19.0431 149.241 20.2421 150.44 20.2421 151.939Z" fill="#A30C33"/>
<g opacity="0.4">
<path d="M65.8657 67.2271H-36.0518V68.4261H65.8657V67.2271Z" fill="black"/>
<path d="M-39.6496 62.432H-40.8486V55.2378C-40.8486 55.0579 -40.7887 54.938 -40.6688 54.8181L-3.97849 18.2477C-3.85858 18.1278 -3.73867 18.0679 -3.55882 18.0679H29.8941V19.2669H-3.31902L-39.6496 55.4776V62.432Z" fill="black"/>
<path d="M47.28 122.983H2.31642C2.13657 122.983 2.01666 122.923 1.89676 122.803L-40.6688 80.2376C-40.7887 80.1177 -40.8486 79.9978 -40.8486 79.8179V73.8228H-39.6496V79.5781L2.55622 121.784H47.28V122.983Z" fill="black"/>
<path d="M17.3037 84.614H-6.79678C-6.97663 84.614 -7.09652 84.554 -7.21643 84.4341L-23.4033 68.3671L-22.564 67.5278L-6.55696 83.415H17.3037V84.614Z" fill="black"/>
<path d="M0.637187 68.3065L-0.202148 67.4672L15.9248 51.2204C16.0447 51.1005 16.1646 51.0405 16.3445 51.0405H40.6848V52.2396H16.5843L0.637187 68.3065Z" fill="black"/>
<path d="M92.2427 37.8515L-2.96017 37.8515C-3.14002 37.8515 -3.25993 37.7916 -3.37983 37.6717L-12.9121 28.0195L-12.0728 27.1802L-2.72036 36.6525L92.2427 36.6525V37.8515Z" fill="black"/>
<path d="M7.35299 19.088L6.51367 18.2487L22.1011 2.6613C22.221 2.5414 22.3409 2.48145 22.5207 2.48145L72.4603 2.48145V3.68047L22.7605 3.68047L7.35299 19.088Z" fill="black"/>
<path d="M17.0639 152.36L-7.09652 128.199C-7.21642 128.079 -7.27637 127.96 -7.27637 127.78L-7.27637 113.391H-6.07734L-6.07734 127.54L17.9032 151.52L17.0639 152.36Z" fill="black"/>
<path d="M11.6069 122.622L10.7676 121.783L26.6547 105.776C26.7746 105.656 26.8945 105.596 27.0744 105.596H87.4455V106.795H27.3741L11.6069 122.622Z" fill="black"/>
<path d="M67.6618 139.77H40.8035C40.6237 139.77 40.5038 139.71 40.3839 139.59L23.4775 122.684L24.3169 121.844L41.0433 138.571H67.6618V139.77Z" fill="black"/>
<path d="M72.4589 5.83731C73.982 5.83731 75.2167 4.60262 75.2167 3.07954C75.2167 1.55647 73.982 0.321777 72.4589 0.321777C70.9359 0.321777 69.7012 1.55647 69.7012 3.07954C69.7012 4.60262 70.9359 5.83731 72.4589 5.83731Z" fill="black"/>
<path d="M35.2875 25.0217C31.8103 25.0217 28.9326 22.204 28.9326 18.6669C28.9326 15.1297 31.7503 12.312 35.2875 12.312C38.8246 12.312 41.6423 15.1297 41.6423 18.6669C41.6423 22.204 38.7647 25.0217 35.2875 25.0217ZM35.2875 13.511C32.4698 13.511 30.1316 15.8491 30.1316 18.6669C30.1316 21.4846 32.4698 23.8227 35.2875 23.8227C38.1052 23.8227 40.4433 21.4846 40.4433 18.6669C40.4433 15.8491 38.1052 13.511 35.2875 13.511Z" fill="black"/>
<path d="M95.0009 37.372C95.0009 38.8708 93.7419 40.1298 92.2431 40.1298C90.7443 40.1298 89.4854 38.8708 89.4854 37.372C89.4854 35.8732 90.7443 34.6143 92.2431 34.6143C93.7419 34.6143 95.0009 35.8133 95.0009 37.372Z" fill="black"/>
<path d="M40.6826 54.3981C42.2056 54.3981 43.4403 53.1634 43.4403 51.6403C43.4403 50.1173 42.2056 48.8826 40.6826 48.8826C39.1595 48.8826 37.9248 50.1173 37.9248 51.6403C37.9248 53.1634 39.1595 54.3981 40.6826 54.3981Z" fill="black"/>
<path d="M71.2592 74.1824C67.782 74.1824 64.9043 71.3647 64.9043 67.8275C64.9043 64.2904 67.722 61.4727 71.2592 61.4727C74.7963 61.4727 77.614 64.2904 77.614 67.8275C77.614 71.3647 74.7363 74.1824 71.2592 74.1824ZM71.2592 62.6717C68.4414 62.6717 66.1033 65.0098 66.1033 67.8275C66.1033 70.6452 68.4414 72.9833 71.2592 72.9833C74.0769 72.9833 76.415 70.6452 76.415 67.8275C76.415 65.0098 74.0769 62.6717 71.2592 62.6717Z" fill="black"/>
<path d="M17.3007 86.7724C18.8238 86.7724 20.0585 85.5377 20.0585 84.0146C20.0585 82.4915 18.8238 81.2568 17.3007 81.2568C15.7777 81.2568 14.543 82.4915 14.543 84.0146C14.543 85.5377 15.7777 86.7724 17.3007 86.7724Z" fill="black"/>
<path d="M87.4462 108.955C88.9693 108.955 90.204 107.72 90.204 106.197C90.204 104.674 88.9693 103.439 87.4462 103.439C85.9232 103.439 84.6885 104.674 84.6885 106.197C84.6885 107.72 85.9232 108.955 87.4462 108.955Z" fill="black"/>
<path d="M52.6752 128.619C49.198 128.619 46.3203 125.801 46.3203 122.264C46.3203 118.727 49.138 115.909 52.6752 115.909C56.2123 115.909 59.03 118.727 59.03 122.264C59.03 125.801 56.1524 128.619 52.6752 128.619ZM52.6752 117.108C49.8575 117.108 47.5193 119.447 47.5193 122.264C47.5193 125.082 49.8575 127.42 52.6752 127.42C55.4929 127.42 57.831 125.082 57.831 122.264C57.831 119.447 55.4929 117.108 52.6752 117.108Z" fill="black"/>
<path d="M67.6621 141.927C69.1851 141.927 70.4198 140.693 70.4198 139.17C70.4198 137.647 69.1851 136.412 67.6621 136.412C66.139 136.412 64.9043 137.647 64.9043 139.17C64.9043 140.693 66.139 141.927 67.6621 141.927Z" fill="black"/>
<path d="M20.2421 151.939C20.2421 153.438 18.9831 154.697 17.4843 154.697C15.9855 154.697 14.7266 153.438 14.7266 151.939C14.7266 150.44 15.9855 149.181 17.4843 149.181C19.0431 149.241 20.2421 150.44 20.2421 151.939Z" fill="black"/>
</g>
</g>
</svg>
